<svg xmlns="http://www.w3.org/2000/svg" viewBox="0 0 100 100" width="120" height="120">
  <defs>
    <linearGradient id="grad" x1="0%" y1="0%" x2="100%" y2="100%">
      <stop offset="0%" stop-color="#0057b8"/>
      <stop offset="50%" stop-color="#9333ea"/>
      <stop offset="100%" stop-color="#ffd700"/>
    </linearGradient>
    <filter id="glow" x="-20%" y="-20%" width="140%" height="140%">
      <feDropShadow dx="0" dy="2" stdDeviation="3" flood-color="rgba(0,0,0,0.3)"/>
    </filter>
  </defs>
  <rect width="100" height="100" rx="20" fill="#0f172a"/>
  <g filter="url(#glow)">
    <path d="M54 22 C52 16 45 18 45 27 C45 38 56 46 56 58 C56 70 45 78 34 72 C27 67 29 57 37 57 C43 57 44 63 39 66 C35 68 33 65 35 63 C36 61 38 62 38 64 C36 65 35 65 35 65 C40 73 50 67 49 57 C48 48 37 40 40 28 C42 19 50 14 55 20 C57 23 57 30 50 38 L48 82 C48 88 43 92 37 90 C32 88 33 80 40 82" fill="none" stroke="url(#grad)" stroke-width="4" stroke-linecap="round"/>
  </g>
</svg>